<?xml version="1.0" encoding="UTF-8" standalone="no"?>
<svg
   xmlns:dc="https://purl.org/dc/elements/1.1/"
   xmlns:cc="https://creativecommons.org/ns#"
   xmlns:rdf="https://www.w3.org/1999/02/22-rdf-syntax-ns#"
   xmlns:svg="https://www.w3.org/2000/svg"
   xmlns="https://www.w3.org/2000/svg"
   xmlns:sodipodi="https://sodipodi.sourceforge.net/DTD/sodipodi-0.dtd"
   xmlns:inkscape="https://www.inkscape.org/namespaces/inkscape"
   inkscape:version="1.0 (4035a4f, 2020-05-01)"
   sodipodi:docname="undraw_3-d_modeling_h-60-h.svg"
   id="svg1639"
   version="1.1"
   viewBox="0 0 1086.87 645.26"
   height="645.26"
   width="1086.87"
   data-name="Layer 1">
  <metadata
     id="metadata1643">
    <rdf:RDF>
      <cc:Work
         rdf:about="">
        <dc:format>image/svg+xml</dc:format>
        <dc:type
           rdf:resource="https://purl.org/dc/dcmitype/StillImage" />
      </cc:Work>
    </rdf:RDF>
  </metadata>
  <sodipodi:namedview
     inkscape:current-layer="layer2"
     inkscape:window-maximized="0"
     inkscape:window-y="25"
     inkscape:window-x="0"
     inkscape:cy="464.60155"
     inkscape:cx="632.72894"
     inkscape:zoom="0.75575672"
     showgrid="false"
     id="namedview1641"
     inkscape:window-height="799"
     inkscape:window-width="1320"
     inkscape:pageshadow="2"
     inkscape:pageopacity="0"
     guidetolerance="10"
     gridtolerance="10"
     objecttolerance="10"
     borderopacity="1"
     bordercolor="#666666"
     pagecolor="#ffffff" />
  <defs
     id="defs1289">
    <linearGradient
       gradientUnits="userSpaceOnUse"
       gradientTransform="translate(-1462.23)"
       y2="284.16"
       x2="1755.38"
       y1="741.53"
       x1="1755.38"
       id="a2e0af23-4ced-4921-9ce0-827007506601-2644">
      <stop
         id="stop1282"
         stop-opacity="0.25"
         stop-color="gray"
         offset="0" />
      <stop
         id="stop1284"
         stop-opacity="0.12"
         stop-color="gray"
         offset="0.54" />
      <stop
         id="stop1286"
         stop-opacity="0.1"
         stop-color="gray"
         offset="1" />
    </linearGradient>
    <filter
       id="filter2007"
       inkscape:label="Greyscale"
       style="color-interpolation-filters:sRGB;">
      <feColorMatrix
         result="fbSourceGraphic"
         id="feColorMatrix2005"
         values="0 1.02 -0 -2.77556e-17 0 0 1.02 -0 -2.77556e-17 0 0 1.02 -0 -2.77556e-17 0 0 0 0 1 0 " />
      <feColorMatrix
         id="feColorMatrix2009"
         values="0 0 0 -1 0 0 0 0 -1 0 0 0 0 -1 0 0 0 0 1 0"
         in="fbSourceGraphic"
         result="fbSourceGraphicAlpha" />
      <feColorMatrix
         in="fbSourceGraphic"
         values="0 1.02 -0 -2.77556e-17 0 0 1.02 -0 -2.77556e-17 0 0 1.02 -0 -2.77556e-17 0 0 0 0 1 0 "
         id="feColorMatrix2011" />
    </filter>
  </defs>
  <title
     id="title1291">3d modeling</title>
  <path
     id="path1293"
     stroke-width="4"
     stroke-miterlimit="10"
     stroke="#3f3d56"
     fill="none"
     transform="translate(-56.56 -127.37)"
     d="M1034.91,695.5c5.94-11-.8-24.46-8.54-34.27s-17.18-20-17-32.49c.29-18,19.34-28.55,34.57-38.07a169.08,169.08,0,0,0,31-24.95c3.73-3.82,7.35-7.9,9.53-12.77,3.15-7,3.06-15,2.86-22.69q-1-38.43-3.79-76.78" />
  <path
     id="path1295"
     fill="#f50057"
     transform="translate(-56.56 -127.37)"
     d="M1112.54,452.08a28,28,0,0,0-14-22.93l-6.27,12.4.19-15a28,28,0,1,0,20.06,25.55Z" />
  <path
     id="path1297"
     fill="#f50057"
     transform="translate(-56.56 -127.37)"
     d="M1062.61,641.57A28,28,0,1,1,1064,619l-17.48,14.23,19.23-4.46A27.66,27.66,0,0,1,1062.61,641.57Z" />
  <path
     id="path1299"
     fill="#f50057"
     transform="translate(-56.56 -127.37)"
     d="M1048.79,587.21a28,28,0,0,1-29.28-26.66,27.65,27.65,0,0,1,2.42-12.75,28,28,0,0,1,18-15.51l-.14,11.54,6.34-12.55h.07a28,28,0,1,1,2.62,55.94Z" />
  <path
     id="path1301"
     fill="#f50057"
     transform="translate(-56.56 -127.37)"
     d="M1116.75,542a28,28,0,1,1,12.38-52.39l-5,13.55,10.18-9.77a27.92,27.92,0,0,1,9,19.33,27.34,27.34,0,0,1-.71,7.71A28,28,0,0,1,1116.75,542Z" />
  <path
     id="path1303"
     opacity="0.1"
     transform="translate(-56.56 -127.37)"
     d="M1108.77,459.54c-6.46.71-12.74,2.72-19.23,3.13s-13.6-1.16-17.71-6.2c-2.21-2.71-3.31-6.15-5.18-9.11a19.94,19.94,0,0,0-7.05-6.64,28,28,0,1,0,52.34,18.59C1110.88,459.35,1109.82,459.43,1108.77,459.54Z" />
  <path
     id="path1305"
     opacity="0.1"
     transform="translate(-56.56 -127.37)"
     d="M1116.75,542a28,28,0,0,1-26.63-39.94,20.7,20.7,0,0,1,5.63,5.64c2,3,3.2,6.49,5.55,9.25,4.35,5.13,11.8,6.81,18.56,6.49s13.28-2.22,20-2.84c.93-.08,1.88-.15,2.82-.17A28,28,0,0,1,1116.75,542Z" />
  <path
     id="path1307"
     opacity="0.1"
     transform="translate(-56.56 -127.37)"
     d="M1048.79,587.21a28,28,0,0,1-29.28-26.66,27.65,27.65,0,0,1,2.42-12.75,22.75,22.75,0,0,1,5.92,5.69c2.17,3.07,3.53,6.6,6.07,9.44,4.72,5.26,12.66,7.11,19.82,6.94,6.94-.15,13.61-1.85,20.5-2.38A28,28,0,0,1,1048.79,587.21Z" />
  <path
     id="path1309"
     opacity="0.1"
     transform="translate(-56.56 -127.37)"
     d="M1062.61,641.57a28,28,0,0,1-51-22.84,27.93,27.93,0,0,1,6.14,5.48c2.66,3.25,4.42,6.92,7.5,9.95,5.72,5.61,15,7.93,23.19,8.15A121.6,121.6,0,0,0,1062.61,641.57Z" />
  <ellipse
     id="ellipse1311"
     opacity="0.1"
     fill="#f50057"
     ry="51"
     rx="510"
     cy="594.27"
     cx="552.2" />
  <g
     id="g1317"
     opacity="0.1">
    <path
       id="path1313"
       fill="#f50057"
       transform="translate(-56.56 -127.37)"
       d="M147.41,238.36a18.18,18.18,0,0,1,4.51-16.85l6.18,6.57-2.87-9.31a18.18,18.18,0,1,1-7.82,19.59Z" />
    <path
       id="path1315"
       opacity="0.1"
       transform="translate(-56.56 -127.37)"
       d="M151.13,242.32c4.15-.74,8.44-.64,12.55-1.58s8.27-3.21,9.9-7.1c.88-2.1.94-4.44,1.56-6.63a12.89,12.89,0,0,1,3.18-5.43,18.19,18.19,0,1,1-29.21,21.17C149.78,242.59,150.45,242.44,151.13,242.32Z" />
  </g>
  <g
     id="g1323"
     opacity="0.1">
    <path
       id="path1319"
       fill="#f50057"
       transform="translate(-56.56 -127.37)"
       d="M995.57,130.09a14.71,14.71,0,0,1,14-1.67l-3.09,6.61,6.13-4.94a14.68,14.68,0,1,1-17,0Z" />
    <path
       id="path1321"
       opacity="0.1"
       transform="translate(-56.56 -127.37)"
       d="M993.72,134.07c1.8,2.89,3,6.13,4.94,8.94s4.89,5.24,8.3,5.29c1.83,0,3.61-.62,5.43-.81a10.56,10.56,0,0,1,5,.75,14.69,14.69,0,1,1-24.63-15.56C993.11,133.13,993.43,133.59,993.72,134.07Z" />
  </g>
  <g
     id="g1329"
     opacity="0.1">
    <path
       id="path1325"
       fill="#f50057"
       transform="translate(-56.56 -127.37)"
       d="M1057.23,202.2a17,17,0,0,1,16.2-1.93l-3.57,7.65,7.1-5.73a17,17,0,1,1-19.73,0Z" />
    <path
       id="path1327"
       opacity="0.1"
       transform="translate(-56.56 -127.37)"
       d="M1055.08,206.8c2.09,3.35,3.48,7.11,5.73,10.36s5.65,6.06,9.6,6.13c2.13,0,4.18-.73,6.3-.95a12.15,12.15,0,0,1,5.81.88,17,17,0,1,1-28.52-18C1054.38,205.72,1054.74,206.25,1055.08,206.8Z" />
  </g>
  <g
     id="g1349"
     opacity="0.2">
    <path
       id="path1331"
       stroke-width="4"
       stroke-miterlimit="10"
       stroke="#3f3d56"
       fill="none"
       transform="translate(-56.56 -127.37)"
       d="M213,593.31c-8.79-8.87-6.13-23.7-1.47-35.29s10.84-24,7.12-36c-5.34-17.14-26.61-21.94-43.9-26.77A168.59,168.59,0,0,1,138,480.1c-4.66-2.6-9.28-5.5-12.75-9.56-5-5.84-7.17-13.53-9.15-21q-9.89-37.14-18-74.72" />
    <path
       id="path1333"
       fill="#f50057"
       transform="translate(-56.56 -127.37)"
       d="M69.87,381.68a28,28,0,0,1,6.94-25.95l9.51,10.13-4.41-14.35a28,28,0,1,1-12,30.17Z" />
    <path
       id="path1335"
       fill="#f50057"
       transform="translate(-56.56 -127.37)"
       d="M171.24,549.38a28,28,0,1,0-7.66-21.24l20.79,8.71L164.66,538A27.72,27.72,0,0,0,171.24,549.38Z" />
    <path
       id="path1337"
       fill="#f50057"
       transform="translate(-56.56 -127.37)"
       d="M169.16,493.33a28,28,0,0,0-7-55.2l3.39,11L156,438.91l-.07,0a28,28,0,1,0,13.27,54.4Z" />
    <path
       id="path1339"
       fill="#f50057"
       transform="translate(-56.56 -127.37)"
       d="M91.2,469.12a28,28,0,1,0-26.66-46.77L73.11,434l-12.52-6.51a27.91,27.91,0,0,0-3.22,21.1,27.54,27.54,0,0,0,2.85,7.2A28,28,0,0,0,91.2,469.12Z" />
    <path
       id="path1341"
       opacity="0.1"
       transform="translate(-56.56 -127.37)"
       d="M75.59,387.77c6.4-1.14,13-1,19.33-2.43s12.73-4.94,15.24-10.93c1.36-3.23,1.45-6.84,2.4-10.21a20.07,20.07,0,0,1,4.89-8.36,28,28,0,1,1-45,32.6C73.51,388.19,74.55,388,75.59,387.77Z" />
    <path
       id="path1343"
       opacity="0.1"
       transform="translate(-56.56 -127.37)"
       d="M91.2,469.12a28,28,0,0,0,14.28-45.83,20.69,20.69,0,0,0-3.81,7c-1.06,3.44-1.24,7.12-2.71,10.44-2.74,6.15-9.41,9.86-16,11.47s-13.37,1.61-20,2.91c-.92.19-1.84.39-2.76.64A28,28,0,0,0,91.2,469.12Z" />
    <path
       id="path1345"
       opacity="0.1"
       transform="translate(-56.56 -127.37)"
       d="M169.16,493.33a28,28,0,0,0,14.65-45.39,22.58,22.58,0,0,0-4.07,7.13c-1.22,3.56-1.53,7.33-3.17,10.77-3,6.37-10.14,10.39-17,12.25-6.7,1.81-13.58,2.06-20.34,3.5A28,28,0,0,0,169.16,493.33Z" />
    <path
       id="path1347"
       opacity="0.1"
       transform="translate(-56.56 -127.37)"
       d="M171.24,549.38a28,28,0,0,0,42.52-36.31,27.5,27.5,0,0,0-4.35,7c-1.64,3.86-2.28,7.88-4.39,11.65-3.9,7-12.11,11.84-19.94,14.37A122.41,122.41,0,0,1,171.24,549.38Z" />
  </g>
  <path
     id="path1351"
     fill="#fff"
     transform="translate(-56.56 -127.37)"
     d="M1040,197.35l-.22,498.29c-35,0,0,0-35.34.18H872.93l-.4-.16a81.06,81.06,0,0,0-61.23,0l-.33.14H679.18q-6.66-2.7-13-5.92a78.73,78.73,0,0,0-70.74,0q-6.39,3.21-13,5.92H450.55l-.33-.14a81.06,81.06,0,0,0-61.23,0l-.4.16H257.1a177,177,0,0,1-59.81-40.18V197.35Z" />
  <path
     id="path1353"
     fill="#ededf4"
     transform="translate(-56.56 -127.37)"
     d="M1040,177.86v21.49H197.28V177.86a7.37,7.37,0,0,1,7.38-7.38H1032.6A7.37,7.37,0,0,1,1040,177.86Z" />
  <circle
     id="circle1355"
     opacity="0.8"
     fill="#fa5959"
     r="3.45"
     cy="57.33"
     cx="154.08" />
  <circle
     id="circle1357"
     opacity="0.8"
     fill="#fed253"
     r="3.45"
     cy="57.33"
     cx="163.56" />
  <circle
     id="circle1359"
     opacity="0.8"
     fill="#8ccf4d"
     r="3.45"
     cy="57.33"
     cx="173.03" />
  <path
     id="path1361"
     fill="#ededf4"
     transform="translate(-56.56 -127.37)"
     d="M307.76,199.35V696.82s-45-.18-110.47-1.18V199.35Z" />
  <path
     id="path1363"
     fill="#ededf4"
     transform="translate(-56.56 -127.37)"
     d="M1041.23,199.35V697.64c-.42.31-40.24-.46-42,.18h-68.5V199.35Z" />
  <rect
     id="rect1365"
     fill="#fff"
     height="10"
     width="80"
     y="96.27"
     x="155.96" />
  <rect
     id="rect1367"
     fill="#fff"
     height="10"
     width="80"
     y="119.27"
     x="155.96" />
  <rect
     id="rect1369"
     fill="#fff"
     height="10"
     width="80"
     y="142.27"
     x="155.96" />
  <rect
     id="rect1371"
     fill="#fff"
     height="10"
     width="80"
     y="165.27"
     x="155.96" />
  <rect
     id="rect1373"
     fill="#fff"
     height="10"
     width="80"
     y="188.27"
     x="155.96" />
  <rect
     id="rect1375"
     fill="#fff"
     height="10"
     width="80"
     y="256.27"
     x="156.2" />
  <rect
     id="rect1377"
     fill="#fff"
     height="10"
     width="80"
     y="279.27"
     x="156.2" />
  <rect
     id="rect1379"
     fill="#fff"
     height="10"
     width="80"
     y="302.27"
     x="156.2" />
  <rect
     id="rect1381"
     fill="#fff"
     height="10"
     width="80"
     y="325.27"
     x="156.2" />
  <rect
     id="rect1383"
     fill="#fff"
     height="10"
     width="80"
     y="348.27"
     x="156.2" />
  <rect
     id="rect1385"
     fill="#fff"
     height="10"
     width="80"
     y="416.27"
     x="156.43" />
  <rect
     id="rect1387"
     fill="#fff"
     height="10"
     width="80"
     y="439.27"
     x="156.43" />
  <rect
     id="rect1389"
     fill="#fff"
     height="10"
     width="80"
     y="462.27"
     x="156.43" />
  <rect
     id="rect1391"
     fill="#fff"
     height="10"
     width="80"
     y="485.27"
     x="156.43" />
  <rect
     id="rect1393"
     fill="#fff"
     height="10"
     width="80"
     y="508.27"
     x="156.43" />
  <rect
     id="rect1395"
     fill="#fff"
     height="10"
     width="10"
     y="76.27"
     x="880.2" />
  <rect
     id="rect1397"
     fill="#fff"
     height="10"
     width="10"
     y="76.27"
     x="892.2" />
  <rect
     id="rect1399"
     fill="#fff"
     height="10"
     width="10"
     y="76.27"
     x="904.2" />
  <rect
     id="rect1401"
     fill="#fff"
     height="10"
     width="10"
     y="76.27"
     x="916.2" />
  <rect
     id="rect1403"
     fill="#fff"
     height="10"
     width="10"
     y="76.27"
     x="928.2" />
  <rect
     id="rect1405"
     fill="#fff"
     height="10"
     width="10"
     y="118.27"
     x="880.2" />
  <rect
     id="rect1407"
     fill="#fff"
     height="10"
     width="10"
     y="118.27"
     x="892.2" />
  <rect
     id="rect1409"
     fill="#fff"
     height="10"
     width="10"
     y="118.27"
     x="904.2" />
  <rect
     id="rect1411"
     fill="#fff"
     height="10"
     width="10"
     y="118.27"
     x="916.2" />
  <rect
     id="rect1413"
     fill="#fff"
     height="10"
     width="10"
     y="118.27"
     x="928.2" />
  <rect
     id="rect1415"
     fill="#fff"
     height="10"
     width="10"
     y="160.27"
     x="880.2" />
  <rect
     id="rect1417"
     fill="#fff"
     height="10"
     width="10"
     y="160.27"
     x="892.2" />
  <rect
     id="rect1419"
     fill="#fff"
     height="10"
     width="10"
     y="160.27"
     x="904.2" />
  <rect
     id="rect1421"
     fill="#fff"
     height="10"
     width="10"
     y="160.27"
     x="916.2" />
  <rect
     id="rect1423"
     fill="#fff"
     height="10"
     width="10"
     y="160.27"
     x="928.2" />
  <rect
     id="rect1425"
     fill="#fff"
     height="10"
     width="10"
     y="202.27"
     x="880.2" />
  <rect
     id="rect1427"
     fill="#fff"
     height="10"
     width="10"
     y="202.27"
     x="892.2" />
  <rect
     id="rect1429"
     fill="#fff"
     height="10"
     width="10"
     y="202.27"
     x="904.2" />
  <rect
     id="rect1431"
     fill="#fff"
     height="10"
     width="10"
     y="202.27"
     x="916.2" />
  <rect
     id="rect1433"
     fill="#fff"
     height="10"
     width="10"
     y="202.27"
     x="928.2" />
  <rect
     id="rect1435"
     fill="#fff"
     height="10"
     width="10"
     y="244.27"
     x="880.2" />
  <rect
     id="rect1437"
     fill="#fff"
     height="10"
     width="10"
     y="244.27"
     x="892.2" />
  <rect
     id="rect1439"
     fill="#fff"
     height="10"
     width="10"
     y="244.27"
     x="904.2" />
  <rect
     id="rect1441"
     fill="#fff"
     height="10"
     width="10"
     y="244.27"
     x="916.2" />
  <rect
     id="rect1443"
     fill="#fff"
     height="10"
     width="10"
     y="244.27"
     x="928.2" />
  <rect
     id="rect1445"
     fill="#fff"
     height="10"
     width="10"
     y="286.27"
     x="880.2" />
  <rect
     id="rect1447"
     fill="#fff"
     height="10"
     width="10"
     y="286.27"
     x="892.2" />
  <rect
     id="rect1449"
     fill="#fff"
     height="10"
     width="10"
     y="286.27"
     x="904.2" />
  <rect
     id="rect1451"
     fill="#fff"
     height="10"
     width="10"
     y="286.27"
     x="916.2" />
  <rect
     id="rect1453"
     fill="#fff"
     height="10"
     width="10"
     y="286.27"
     x="928.2" />
  <rect
     id="rect1455"
     fill="#fff"
     height="10"
     width="10"
     y="328.27"
     x="880.2" />
  <rect
     id="rect1457"
     fill="#fff"
     height="10"
     width="10"
     y="328.27"
     x="892.2" />
  <rect
     id="rect1459"
     fill="#fff"
     height="10"
     width="10"
     y="328.27"
     x="904.2" />
  <rect
     id="rect1461"
     fill="#fff"
     height="10"
     width="10"
     y="328.27"
     x="916.2" />
  <rect
     id="rect1463"
     fill="#fff"
     height="10"
     width="10"
     y="328.27"
     x="928.2" />
  <rect
     id="rect1465"
     fill="#fff"
     height="10"
     width="10"
     y="370.27"
     x="880.2" />
  <rect
     id="rect1467"
     fill="#fff"
     height="10"
     width="10"
     y="370.27"
     x="892.2" />
  <rect
     id="rect1469"
     fill="#fff"
     height="10"
     width="10"
     y="370.27"
     x="904.2" />
  <rect
     id="rect1471"
     fill="#fff"
     height="10"
     width="10"
     y="370.27"
     x="916.2" />
  <rect
     id="rect1473"
     fill="#fff"
     height="10"
     width="10"
     y="370.27"
     x="928.2" />
  <rect
     id="rect1475"
     fill="#fff"
     height="10"
     width="10"
     y="412.27"
     x="880.2" />
  <rect
     id="rect1477"
     fill="#fff"
     height="10"
     width="10"
     y="412.27"
     x="892.2" />
  <rect
     id="rect1479"
     fill="#fff"
     height="10"
     width="10"
     y="412.27"
     x="904.2" />
  <rect
     id="rect1481"
     fill="#fff"
     height="10"
     width="10"
     y="412.27"
     x="916.2" />
  <rect
     id="rect1483"
     fill="#fff"
     height="10"
     width="10"
     y="412.27"
     x="928.2" />
  <rect
     id="rect1485"
     fill="#fff"
     height="10"
     width="10"
     y="454.27"
     x="880.2" />
  <rect
     id="rect1487"
     fill="#fff"
     height="10"
     width="10"
     y="454.27"
     x="892.2" />
  <rect
     id="rect1489"
     fill="#fff"
     height="10"
     width="10"
     y="454.27"
     x="904.2" />
  <rect
     id="rect1491"
     fill="#fff"
     height="10"
     width="10"
     y="454.27"
     x="916.2" />
  <rect
     id="rect1493"
     fill="#fff"
     height="10"
     width="10"
     y="454.27"
     x="928.2" />
  <rect
     id="rect1495"
     fill="#fff"
     height="10"
     width="10"
     y="496.27"
     x="880.2" />
  <rect
     id="rect1497"
     fill="#fff"
     height="10"
     width="10"
     y="496.27"
     x="892.2" />
  <rect
     id="rect1499"
     fill="#fff"
     height="10"
     width="10"
     y="496.27"
     x="904.2" />
  <rect
     id="rect1501"
     fill="#fff"
     height="10"
     width="10"
     y="496.27"
     x="916.2" />
  <rect
     id="rect1503"
     fill="#fff"
     height="10"
     width="10"
     y="496.27"
     x="928.2" />
  <rect
     id="rect1505"
     fill="#fff"
     height="10"
     width="10"
     y="538.27"
     x="880.2" />
  <rect
     id="rect1507"
     fill="#fff"
     height="10"
     width="10"
     y="538.27"
     x="892.2" />
  <rect
     id="rect1509"
     fill="#fff"
     height="10"
     width="10"
     y="538.27"
     x="904.2" />
  <rect
     id="rect1511"
     fill="#fff"
     height="10"
     width="10"
     y="538.27"
     x="916.2" />
  <rect
     id="rect1513"
     fill="#fff"
     height="10"
     width="10"
     y="538.27"
     x="928.2" />
  <path
     id="path1529"
     fill="url(#a2e0af23-4ced-4921-9ce0-827007506601-2644)"
     transform="translate(-56.56 -127.37)"
     d="M367.3,424.3c-1.68-11.25-11.89-37.48-11.89-37.48h0c-.18-.79-.38-1.56-.61-2.33-7.25-24.93-17.29-27.14-17.29-27.14l-35.94-7.66a2.75,2.75,0,0,1,.74.72c-.18,0-.37,0-.57.08a14.09,14.09,0,0,1-3.15-6.81c-.07-.37-.13-.76-.18-1.15a25.28,25.28,0,0,0-2.06-38c-.37-.29-.75-.58-1.15-.85,1.7-1.8,1.75-4.31.49-6.81-2.84-5.89-9-9.61-15.32-11.42-4.84-1.39-10.09-1.84-14.88-.32a54.27,54.27,0,0,0-7.78,3.61c-4.78,2.39-10,4.27-13.63,8.19a4.06,4.06,0,0,0-1.36,3.29,8.89,8.89,0,0,0,1.35,2.39c1,1.79.76,4.05.07,6s-1.73,3.76-2.22,5.76-.3,4.35,1.2,5.78a26,26,0,0,0,2.25,1.59,12,12,0,0,1,2.14,2.4l4.26,5.75a59,59,0,0,1,5.32,8.11,39.36,39.36,0,0,0,3.3,6.18,9,9,0,0,0,1.42,1.48l-.42-.16a6.45,6.45,0,0,0,4.76,1.83h.22a1.29,1.29,0,0,0,.86-.35l0,.79c.08,2.76.06,5.7-.13,8.46l-.33-.17a2.89,2.89,0,0,0-3.1.33l-33.11,26.55s-7.2,9.85-6.19,26.83l-5.8,25.48s-7.26,21.62-1.68,37.07,8.81,24.26,8.81,24.26,2.24,17.54,5.58,19,4.8,2.21,4.8,2.21l.67,4.19h0s.22.41.61,1.1c2.44,4.24,11.47,19.2,16.72,17.6a68,68,0,0,1,.85,12.3l5.19,34.85s3.62,9.49,3.4,14.45,4.24,12,4.24,12a23,23,0,0,0-2.23,16.22c2.12,9.26,4.8,52.06,4.8,52.06l3.9,10.37L274.15,705a11.67,11.67,0,0,1-2.4,5.39c-2.51,2.72-2.34,5.87-8.37,9.59s-9.87,5.13-9.87,10.09a12.93,12.93,0,0,1-.18,2c-.56,3.63-1.65,5.58,9.47,6.64a29.26,29.26,0,0,0,21.75-7.28s1.93-3.48,11-4.88c0,0,3.09-.17,3.26-2.9.06-.94.05-2.75,0-4.73-.15-3.79-.51-8.2-1-8.42s-1.66-4.08-2-5.46h2.51s2.35-17.54,0-28.9-.22-19.41-.22-19.41l-.45-30s-3.12-3.31-.67-9.16,0-34.74,0-34.74.9-10.37,3.46-12.8.13-15.19,0-15.85l4.57,15.3s2,30.45,6.25,36l1.22,13.78s8.7,12.69,7,19.53,1.79,31.55,1.79,31.55v25.26s-3.91,10.14,1.56,13.78l2.35-.09c-.8.72-1.37,1.81-2.27,2.74-1.05,1.08-1.64,5.17-2,8.69-.28,3-.37,5.54-.37,5.54a9.18,9.18,0,0,0,6.7,4c4.35.25,18.74,11.25,18.74,11.25s14.23,0,17.91-.74l.21,0a4.87,4.87,0,0,0,2.78-2.27,5.74,5.74,0,0,0,.67-4.17c-.45-2.18-2.18-4.56-6-6.59-9.55-5-11-9.75-11-9.75l-6.24-9.37.89,0s-.56-9.92,6.24-21.07L351,638.4s2.79-16.88-2-26c0,0-.39-9.71,2.81-12.68s-4.26-33.1-4.26-33.1-1.53-16.16-3.37-30.91l0,0c7.53,7.14,15.35-18.58,16.66-23.14l.19,0s0-.13-.09-.34l.09-.33h0s-1.67-5.95-.45-4.74,4.24-3.31,4.24-3.31-.44-24.6,4.8-37S367.3,424.3,367.3,424.3ZM344.87,440l0-.06c.78,15-.15,47.07-.15,47.07s-1,4.1-2.14,8.94l-.79-30.45h0l-.75-28.68Zm-96-10.35s3.79,47.43,0,54.27c-1.08,1.94-2,5.41-2.74,9.37-1.25-3.29-3.9-11-3-15.11,1.22-5.29-2.46-19.19-2.46-19.52s-.33-7.72,2.35-13.4.89-8.11.89-8.11S246.15,427.83,248.83,429.6Z" />
  <path
     style="fill:#ffe6d5"
     id="path1531"
     fill="#a1616a"
     transform="translate(-56.56 -127.37)"
     d="M258.06,536.41c-3.3,14.53-16.44-7.43-19.43-12.7l-.61-1.09,1.43-6.68,7.53-3.07a21,21,0,0,1,3.37,2.19C254.47,518.28,260.61,525.17,258.06,536.41Z" />
  <path
     style="fill:#ffe6d5"
     id="path1533"
     fill="#a1616a"
     transform="translate(-56.56 -127.37)"
     d="M360,512.65s0,.11-.08.32l-.11.36c-1.28,4.53-8.95,30.06-16.34,23-8.1-7.77-4.16-25.63-4.16-25.63h.05l17-1.74,3.37,3.46s0,0,0,0Z" />
  <path
     id="path1535"
     fill="#2f2e41"
     transform="translate(-56.56 -127.37)"
     d="M350.14,638.24l.43,48.71c-6.67,11.07-6.12,20.92-6.12,20.92l-22,.87c-5.37-3.61-1.53-13.68-1.53-13.68V670s-3.4-24.52-1.76-31.31-6.89-19.38-6.89-19.38l-1.21-13.68c-4.16-5.48-6.13-35.7-6.13-35.7l-4.48-15.19c.12.66,2.44,13.39,0,15.74s-3.39,12.7-3.39,12.7,2.41,28.69,0,34.49.65,9.09.65,9.09l.44,29.78s-2.08,8,.22,19.26,0,28.69,0,28.69H274.7l.11-12.15L271,682s-2.63-42.48-4.71-51.68a23.06,23.06,0,0,1,2.19-16.09s-4.38-7-4.16-11.94S261,588,261,588l-5.09-34.6a67,67,0,0,0-2.52-19.71c-3-9.85-7.33-22.77-7.33-22.77l4.94.44,25,2.22s60.65-4.08,63.37-.69a11.18,11.18,0,0,1,1.14,3.53c2.72,12.24,6.32,50.56,6.32,50.56s7.34,29.89,4.19,32.85-2.76,12.58-2.76,12.58C352.87,621.48,350.14,638.24,350.14,638.24Z" />
  <path
     id="path1537"
     fill="#303d5c"
     transform="translate(-56.56 -127.37)"
     d="M298.87,723c-.17,2.71-3.2,2.87-3.2,2.87-8.87,1.4-10.76,4.85-10.76,4.85a28.55,28.55,0,0,1-21.35,7.23c-10.91-1-9.84-3-9.29-6.6a12.67,12.67,0,0,0,.18-2c0-4.93,3.77-6.32,9.69-10s5.74-6.82,8.21-9.52,2.71-8,2.71-8c2.79-4.85,9.85.73,9.85.73.33,1.72,10.84,1.48,10.84,1.48s1.4,5.58,2.11,5.91c.48.22.83,4.6,1,8.36C298.91,720.22,298.93,722,298.87,723Z" />
  <path
     id="path1539"
     opacity="0.1"
     transform="translate(-56.56 -127.37)"
     d="M298.87,723c-.17,2.71-3.2,2.87-3.2,2.87-8.87,1.4-10.76,4.85-10.76,4.85a28.55,28.55,0,0,1-21.35,7.23c-10.91-1-9.84-3-9.29-6.6,4.87,1.21,14.2,2.9,19.63-.06,7.56-4.1,13-7,13-7l11.95-6C298.91,720.22,298.93,722,298.87,723Z" />
  <path
     id="path1541"
     fill="#303d5c"
     transform="translate(-56.56 -127.37)"
     d="M365.7,737.56a4.78,4.78,0,0,1-2.73,2.26l-.21,0c-3.61.73-17.58.73-17.58.73s-14.12-10.91-18.39-11.16a9,9,0,0,1-6.57-4s.08-2.54.36-5.49c.33-3.5.91-7.56,1.94-8.63,1.89-2,2.3-4.68,6.57-3,0,0,6.07-10.69,13.21-2.43l7.4,11.22s1.39,4.68,10.76,9.69c3.75,2,5.45,4.37,5.89,6.53A5.8,5.8,0,0,1,365.7,737.56Z" />
  <path
     id="path1543"
     opacity="0.1"
     transform="translate(-56.56 -127.37)"
     d="M365.7,737.56c-.84.71-1.76,1.47-2.73,2.26l-.21,0c-3.61.73-17.58.73-17.58.73s-14.12-10.91-18.39-11.16a9,9,0,0,1-6.57-4s.08-2.54.36-5.49c4.34,1.3,10.93,3.6,12.7,6.07,2.7,3.77,10.93,9,10.93,9s15.33-1.47,22.14-1.68A5.8,5.8,0,0,1,365.7,737.56Z" />
  <path
     style="fill:#e9c6af"
     id="path1545"
     fill="#a1616a"
     transform="translate(-56.56 -127.37)"
     d="M306,355.48l-20.21,21.35s-24.47-1.8-20.2-9c2.18-3.68,2.52-11.39,2.33-18.09-.18-6.46-.85-12-.85-12s34.33-17.08,31.7-1.15a26.3,26.3,0,0,0-.1,9.1C300.19,353.73,306,355.48,306,355.48Z" />
  <path
     id="path1547"
     opacity="0.1"
     transform="translate(-56.56 -127.37)"
     d="M298.79,336.59a26.3,26.3,0,0,0-.1,9.1c-4.58,4.63-10.94,3.61-18,3.61-4.66,0-9.66.07-13.41-2.14-.18-6.46-.22-9.42-.22-9.42S301.42,320.66,298.79,336.59Z" />
  <path
     style="fill:#ffe6d5"
     id="path1549"
     fill="#a1616a"
     transform="translate(-56.56 -127.37)"
     d="M306,326.58a25.3,25.3,0,0,1-25.3,25.29A25.29,25.29,0,1,1,306,326.58Z" />
  <path
     id="path1551"
     opacity="0.1"
     transform="translate(-56.56 -127.37)"
     d="M340.42,516.4c-6.29,15-46.81,15.3-46.81,15.3V515.36l-2.45-.16c1.06,4.68-1.49,16.09-1.49,16.09-32,4.52-39.82-13.71-39.82-13.71l1.11-6.24,25,2.22s60.65-4.08,63.37-.69A11.18,11.18,0,0,1,340.42,516.4Z" />
  <path
     id="path1553"
     fill="#e1e7ef"
     transform="translate(-56.56 -127.37)"
     d="M293.61,529.73V513.39l-2.45-.16c1.06,4.68-1.49,16.09-1.49,16.09-24.1,3.4-34.48-6.09-38.14-11a15.24,15.24,0,0,1-1.68-2.72l9.77-55,2.3-81,3.53-14.2.81-6.82v-.08l.09,0,2.49,1.07,14.91,6.45,16.94-12.79.24-.19.85-.63,1.4,1.12,3.48,2.79,11.17,72.11s19.37,55.52,23,77.93c.14.89.26,1.72.35,2.51C343.54,529.35,293.61,529.73,293.61,529.73Z" />
  <circle
     id="circle1555"
     fill="#67647e"
     r="1.44"
     cy="240.27"
     cx="229" />
  <circle
     id="circle1557"
     fill="#67647e"
     r="1.44"
     cy="253.4"
     cx="229.66" />
  <circle
     id="circle1559"
     fill="#67647e"
     r="1.44"
     cy="274.67"
     cx="231.1" />
  <circle
     id="circle1561"
     fill="#67647e"
     r="1.44"
     cy="297.58"
     cx="233.48" />
  <circle
     id="circle1563"
     fill="#67647e"
     r="1.44"
     cy="319.1"
     cx="234.92" />
  <circle
     id="circle1565"
     fill="#67647e"
     r="1.44"
     cy="342.01"
     cx="236.36" />
  <circle
     id="circle1567"
     fill="#67647e"
     r="1.44"
     cy="364.67"
     cx="235.79" />
  <path
     id="path1569"
     opacity="0.1"
     transform="translate(-56.56 -127.37)"
     d="M267.22,468.59s-1.61,21.07-4.56,27.2-4.27,23.32-4.27,23.32l-6.86-.78a15.24,15.24,0,0,1-1.68-2.72l9.77-55,2.3-81,3.53-14.2.81-6.82.1,0a2.79,2.79,0,0,1,2.44,0l.33.17c-.1.28-.2.57-.28.86-2.68,8.38-3.68,23.82-3.68,23.82s3.84,28.25,4.27,41.39S267.22,468.59,267.22,468.59Z" />
  <path
     id="path1571"
     opacity="0.1"
     transform="translate(-56.56 -127.37)"
     d="M250.35,515.06a4.11,4.11,0,0,1-.27.51c-2.66,4.5-9.4,7.36-11.45,8.14l-.61-1.09,1.43-6.68,7.53-3.07A21,21,0,0,1,250.35,515.06Z" />
  <path
     id="path1573"
     fill="#303d5c"
     transform="translate(-56.56 -127.37)"
     d="M232.11,407.54l-6.24,3.73-5.69,25.29s-7.12,21.46-1.65,36.78,8.65,24.09,8.65,24.09,2.19,17.41,5.48,18.83,4.71,2.19,4.71,2.19l.65,4.16s8.91-3,12.07-8.35-2.32-18.58-2.32-18.58-4.71-11.28-3.51-16.53-2.4-19-2.4-19.38-.33-7.67,2.29-13.3.88-8.05.88-8.05l-1.64-16.1Z" />
  <path
     id="path1575"
     opacity="0.1"
     transform="translate(-56.56 -127.37)"
     d="M340.94,511.67s-16.53,6.24-21.79.76-4.71-31.09-4.71-31.09-5-47.3-8.21-55.07-1.53-63.84-1.53-63.84-2.14-7.25-4-9.14a1.77,1.77,0,0,0-.39-.32l.63.13,2.25.49,3.48,2.79,11.17,72.11s19.37,55.52,23,77.93Z" />
  <path
     id="path1577"
     opacity="0.1"
     transform="translate(-56.56 -127.37)"
     d="M360,513.31l-.19,0c-2.07.27-20.45,2.49-20.52-1.34a11.66,11.66,0,0,1,.07-1.32l17-1.74,3.37,3.46s0,0,0,0c.06.22.11.42.16.57Z" />
  <path
     id="path1579"
     fill="#303d5c"
     transform="translate(-56.56 -127.37)"
     d="M342.37,382.21l12.08,6.3s10,26,11.67,37.21c0,0,7.45,29.91,2.3,42.22s-4.7,36.72-4.7,36.72-3,4.49-4.17,3.28.44,4.71.44,4.71-20.63,2.74-20.72-1.31S344,487.91,344,487.91s1.31-46.1-.55-53.32S342.37,382.21,342.37,382.21Z" />
  <path
     id="path1581"
     opacity="0.1"
     transform="translate(-56.56 -127.37)"
     d="M306.34,431.3s-6.78,16.64-9,17.74.43,5.47.43,5.47S310.18,437.21,306.34,431.3Z" />
  <path
     id="path1583"
     opacity="0.1"
     transform="translate(-56.56 -127.37)"
     d="M302.29,372.94c.08-.31-8.1,8-10.29,9.27S300,382.14,302.29,372.94Z" />
  <path
     id="path1585"
     opacity="0.1"
     transform="translate(-56.56 -127.37)"
     d="M279.52,430s-12.48,8.07-10.84,11.26S279.52,430,279.52,430Z" />
  <path
     id="path1587"
     opacity="0.1"
     transform="translate(-56.56 -127.37)"
     d="M302.18,547.8s10.63,6.83,27.16,8.54Z" />
  <path
     id="path1589"
     opacity="0.1"
     transform="translate(-56.56 -127.37)"
     d="M276.67,564.22s9.86,12.37,14.35,12.7S276.67,564.22,276.67,564.22Z" />
  <path
     id="path1591"
     opacity="0.1"
     transform="translate(-56.56 -127.37)"
     d="M290.47,612.72c-.44.22-5.59,11.17-10.84,11.5S290.47,612.72,290.47,612.72Z" />
  <path
     id="path1593"
     opacity="0.1"
     transform="translate(-56.56 -127.37)"
     d="M336.12,636.7s9.77-2.19,11.94,4.82C348.06,641.52,347.4,639.33,336.12,636.7Z" />
  <path
     id="path1595"
     opacity="0.1"
     transform="translate(-56.56 -127.37)"
     d="M329.56,676.77s11.82-2.41,14.34.88S329.56,676.77,329.56,676.77Z" />
  <path
     id="path1597"
     opacity="0.1"
     transform="translate(-56.56 -127.37)"
     d="M296.09,682.36c0,.11-12,2.41-11.57,3.94s12.85,1.31,13.28-1.1A2.28,2.28,0,0,0,296.09,682.36Z" />
  <path
     id="path1599"
     opacity="0.1"
     transform="translate(-56.56 -127.37)"
     d="M325.61,692.76s19.79-2.41,18.54,1.75S325.61,692.76,325.61,692.76Z" />
  <path
     id="path1601"
     opacity="0.1"
     transform="translate(-56.56 -127.37)"
     d="M222,449c.11.33,13,2.08,14.78,6.24,0,0-12.7-5.91-14.67-5.91" />
  <path
     id="path1603"
     opacity="0.1"
     transform="translate(-56.56 -127.37)"
     d="M240.21,482.87s-10.73,3.39-10,8.54S229.16,489,240.21,482.87Z" />
  <path
     id="path1605"
     opacity="0.1"
     transform="translate(-56.56 -127.37)"
     d="M235.21,508.93s3.91-5.37,7.63-4.38S235.21,508.93,235.21,508.93Z" />
  <path
     id="path1607"
     opacity="0.1"
     transform="translate(-56.56 -127.37)"
     d="M296.5,306.81a6.17,6.17,0,0,1-1.26.94c-3.11,1.8-3.95,4.58-5.44,7.78-1.36,2.93-2.88,6-5.64,7.7-3.56,2.15-8.26,1.36-12,3.24a9.32,9.32,0,0,0-4.95,9.15,26.48,26.48,0,0,0,1.05,4.19,29.51,29.51,0,0,1,1.13,9.11,1.23,1.23,0,0,1,0,.27,25.29,25.29,0,1,1,27.1-42.38Z" />
  <path
     id="path1609"
     fill="#2f2e41"
     transform="translate(-56.56 -127.37)"
     d="M295.84,299.2c-2.78-5.84-8.82-9.53-15-11.33-4.74-1.38-9.89-1.83-14.6-.32a53.49,53.49,0,0,0-7.63,3.58c-4.69,2.37-9.85,4.25-13.38,8.14a4,4,0,0,0-1.33,3.26,8.53,8.53,0,0,0,1.32,2.37c1,1.78.74,4,.07,6s-1.7,3.73-2.18,5.72-.29,4.31,1.18,5.73a26.64,26.64,0,0,0,2.2,1.58,12,12,0,0,1,2.11,2.38l4.17,5.71a58.67,58.67,0,0,1,5.23,8,39,39,0,0,0,3.24,6.13c1.39,1.85,3.56,3.34,5.87,3.13a1.12,1.12,0,0,0,.92-.44,1.26,1.26,0,0,0,.12-.58,30.07,30.07,0,0,0-1.13-9.1,25.58,25.58,0,0,1-1.06-4.2,9.32,9.32,0,0,1,4.95-9.15c3.72-1.87,8.42-1.08,12-3.23,2.76-1.67,4.28-4.77,5.64-7.7,1.49-3.21,2.32-6,5.44-7.79S297.38,302.27,295.84,299.2Z" />
  <path
     id="path1611"
     opacity="0.1"
     transform="translate(-56.56 -127.37)"
     d="M284.51,712.6s3.85,4.93,2.86,7.72S284.51,712.6,284.51,712.6Z" />
  <path
     id="path1613"
     opacity="0.1"
     transform="translate(-56.56 -127.37)"
     d="M336.85,724.92s.86-6.61,4.31-6.67,3.61-.35,6.24.65,5.1,2.59,4.32,2.83-4.54-3.78-8.37-1.73A27.8,27.8,0,0,0,336.85,724.92Z" />
  <path
     id="path1615"
     opacity="0.1"
     transform="translate(-56.56 -127.37)"
     d="M273,374.33l10.8-7.6s-15.85-9.36-17.74-8.05-3.18,13.15-3.18,13.15Z" />
  <path
     id="path1617"
     fill="#e1e7ef"
     transform="translate(-56.56 -127.37)"
     d="M272.92,373.83l10.84-7.76s-15.85-9.36-17.74-8-3.18,13.8-3.18,13.8Z" />
  <path
     id="path1619"
     opacity="0.03"
     transform="translate(-56.56 -127.37)"
     d="M272.92,373.83l10.84-7.76s-15.85-9.36-17.74-8-3.18,13.8-3.18,13.8Z" />
  <path
     id="path1621"
     fill="#303d5c"
     transform="translate(-56.56 -127.37)"
     d="M267.82,358.12l-.33-.17a2.81,2.81,0,0,0-3,.32L232,384.63s-7.06,9.77-6.08,26.64L245,438.42s2.19-9.2,4.82-7.45c0,0,3.72,47.08,0,53.87S244.48,517,244.48,517l12.59,1.42s1.32-17.19,4.27-23.32,4.57-27.19,4.57-27.19,2.66-30.62,2.22-43.76-4.27-41.38-4.27-41.38S264.93,366.24,267.82,358.12Z" />
  <path
     id="path1623"
     opacity="0.1"
     transform="translate(-56.56 -127.37)"
     d="M300.19,369.52l-13.51-5s17.2-18.83,19.34-8.38Z" />
  <path
     id="path1625"
     fill="#e1e7ef"
     transform="translate(-56.56 -127.37)"
     d="M300.19,368.87l-13.51-5S303.88,345,306,355.48Z" />
  <path
     id="path1627"
     opacity="0.03"
     transform="translate(-56.56 -127.37)"
     d="M300.19,368.87l-13.51-5S303.88,345,306,355.48Z" />
  <path
     id="path1629"
     opacity="0.1"
     transform="translate(-56.56 -127.37)"
     d="M299.75,352.85a.74.74,0,0,1,.56.12Z" />
  <path
     id="path1631"
     fill="#303d5c"
     transform="translate(-56.56 -127.37)"
     d="M301.06,351.54l35.83,7.72s9.85,2.19,17,26.93-9.74,55.06-9.74,55.06l-3.73-3.16,1.87,72.26s-16.54,6.24-21.79.77-4.71-31.1-4.71-31.1-5-47.3-8.21-55.07S306,361.12,306,361.12,303.06,351.1,301.06,351.54Z" />
  <path
     id="path1633"
     opacity="0.1"
     transform="translate(-56.56 -127.37)"
     d="M333.83,397.58c-.51.47-1.1,22.33,1.09,39a212.24,212.24,0,0,0,6.21,30l-3.25-66.68S335.36,396.16,333.83,397.58Z" />
  <path
     id="path1635"
     opacity="0.1"
     transform="translate(-56.56 -127.37)"
     d="M329.45,378.75c.87.55,4.7,9.63,2.95,13.36S329.45,378.75,329.45,378.75Z" />
  <path
     id="path1637"
     opacity="0.1"
     transform="translate(-56.56 -127.37)"
     d="M295.63,299.2a19.69,19.69,0,0,0-7.88-8.25,18.77,18.77,0,0,1,5.91,6.94c1.53,3.07,1.09,6.15-1.92,7.89s-3.95,4.58-5.44,7.78c-1.36,2.93-2.87,6-5.64,7.7-3.56,2.15-8.26,1.36-12,3.23a9.34,9.34,0,0,0-4.95,9.16,26.76,26.76,0,0,0,1.05,4.19,29.51,29.51,0,0,1,1.13,9.11,1.14,1.14,0,0,1-.12.58,1.11,1.11,0,0,1-.92.44,5.45,5.45,0,0,1-2.7-.5,6.27,6.27,0,0,0,4.67,1.81.9.9,0,0,0,1-1,29.75,29.75,0,0,0-1.12-9.1,25.58,25.58,0,0,1-1.06-4.2,9.32,9.32,0,0,1,5-9.15c3.71-1.87,8.41-1.08,12-3.23,2.77-1.67,4.28-4.77,5.64-7.7,1.5-3.21,2.33-6,5.44-7.79S297.16,302.27,295.63,299.2Z" />
  <g
     inkscape:label="Layer 1"
     id="layer1"
     inkscape:groupmode="layer" />
  <g
     inkscape:label="Layer 2"
     id="layer2"
     inkscape:groupmode="layer" />
</svg>
